<svg version="1.1" id="Layer_1" xmlns="http://www.w3.org/2000/svg" xmlns:xlink="http://www.w3.org/1999/xlink" x="0px" y="0px"
	 width="100%" viewBox="0 0 400 400" enable-background="new 0 0 400 400" xml:space="preserve">
<path fill="#050605" opacity="1.000000" stroke="none" 
	d="
M270.000000,401.000000 
	C180.027969,401.000000 90.555931,401.000000 1.041946,401.000000 
	C1.041946,267.736298 1.041946,134.472580 1.041946,1.104436 
	C134.221970,1.104436 267.444061,1.104436 400.833069,1.104436 
	C400.833069,134.333160 400.833069,267.666565 400.833069,401.000000 
	C357.472656,401.000000 313.986328,401.000000 270.000000,401.000000 
M199.424118,243.011398 
	C199.218292,243.310699 199.012466,243.610001 198.927109,243.914993 
	C198.927109,243.914993 198.912994,243.795212 198.309158,243.994431 
	C197.509293,244.646545 196.709427,245.298660 195.977783,245.983124 
	C195.977783,245.983124 195.960144,245.909698 195.219284,246.008926 
	C187.892014,250.275116 180.084854,250.579803 172.052765,248.923264 
	C172.052765,248.923264 172.152588,248.882202 171.774780,248.292282 
	C169.213364,247.144409 166.651962,245.996536 164.049454,244.939545 
	C164.049454,244.939545 164.139648,244.896973 163.927811,244.296646 
	C162.677032,243.246033 161.426254,242.195419 159.812637,240.551773 
	C138.480438,217.788986 131.226135,190.919144 138.138870,160.766907 
	C149.100357,112.954590 199.016510,84.718819 246.057587,98.904076 
	C259.787811,103.044434 271.591248,110.266228 281.821228,120.101479 
	C288.601379,113.326660 295.151764,106.781418 301.718658,100.219696 
	C301.597534,99.955498 301.534882,99.582741 301.315826,99.374382 
	C271.439484,70.956276 235.931503,60.961430 195.991425,69.582443 
	C139.024048,81.878754 101.018402,136.487213 107.848267,193.575211 
	C111.017052,220.061783 121.861343,242.567780 140.593170,262.047729 
	C149.239807,269.780457 158.691040,275.916809 171.262161,277.715851 
	C179.554886,277.173248 187.847595,276.630646 196.566833,276.115875 
	C196.566833,276.115875 196.953232,275.933228 197.669724,276.028107 
	C199.156235,275.389404 200.642761,274.750732 202.024734,274.034760 
	C202.024734,274.034760 202.096725,274.143005 202.831833,274.125000 
	C205.910370,272.427368 208.988922,270.729767 212.009079,269.003845 
	C212.009079,269.003845 212.004791,269.068604 212.565369,268.981689 
	C212.775681,268.685608 212.986008,268.389526 213.064224,268.083160 
	C213.064224,268.083160 213.072586,268.215393 213.664978,268.090759 
	C214.118546,267.724304 214.572113,267.357849 214.992264,266.982941 
	C214.992264,266.982941 214.982071,267.015869 215.533844,266.937866 
	C215.722122,266.634430 215.910400,266.330963 216.022568,266.022461 
	C216.022568,266.022461 216.023193,266.098755 216.566666,265.965240 
	C216.767838,265.665100 216.969009,265.364960 217.073242,265.070099 
	C217.073242,265.070099 217.096298,265.164398 217.710617,264.995850 
	C218.596939,264.120605 219.483246,263.245392 220.278778,262.205811 
	C220.278778,262.205811 220.300720,262.392303 220.824005,262.214111 
	C221.016388,261.910339 221.208771,261.606537 221.278625,261.271973 
	C221.278625,261.271973 221.317215,261.392273 221.824509,261.187653 
	C222.004349,260.879333 222.184189,260.571045 222.187210,260.227478 
	C222.187210,260.227478 222.336197,260.329071 222.896774,260.061859 
	C223.641937,259.067963 224.387100,258.074097 225.048126,257.045044 
	C225.048126,257.045044 225.081985,257.129730 225.696686,256.897705 
	C226.520035,255.631546 227.343399,254.365372 228.078094,253.078278 
	C228.078094,253.078278 228.076599,253.169357 228.608566,252.957642 
	C228.732544,252.615570 228.856522,252.273499 229.177979,251.761185 
	C229.177979,251.761185 229.113724,251.508499 229.639999,251.160416 
	C229.780441,250.771973 229.920883,250.383530 229.998871,250.001846 
	C229.998871,250.001846 230.021851,250.060349 230.578354,249.773071 
	C230.759781,249.187210 230.941208,248.601349 231.043365,248.034012 
	C231.043365,248.034012 231.071182,248.110504 231.618439,247.780182 
	C231.925949,246.997269 232.233444,246.214355 232.490524,245.375198 
	C232.490524,245.375198 232.558578,245.342422 232.963928,245.026062 
	C233.015350,244.690689 233.066772,244.355331 233.044052,244.037933 
	C233.044052,244.037933 233.071671,244.109039 233.649429,243.673676 
	C234.168320,241.797195 234.687210,239.920715 235.098511,238.066513 
	C235.098511,238.066513 235.140930,238.167862 235.702103,237.752121 
	C235.819794,236.847046 235.937485,235.941986 236.464798,234.639664 
	C236.578827,234.094681 236.692856,233.549713 237.033936,232.178619 
	C238.779236,222.768997 238.842468,213.474106 235.233124,204.204468 
	C235.233124,204.204468 235.044601,204.041916 235.076065,203.320251 
	C234.661179,202.212418 234.246307,201.104599 233.755051,199.309845 
	C232.544678,197.152573 231.334290,194.995316 230.096161,192.933472 
	C230.096161,192.933472 230.195267,192.940689 230.100616,192.329514 
	C229.747620,191.860367 229.394638,191.391220 229.008469,190.985489 
	C229.008469,190.985489 229.077408,190.966278 228.932816,190.328003 
	C227.993240,189.167435 227.053680,188.006882 226.070343,186.939987 
	C226.070343,186.939987 226.164124,186.896469 225.993683,186.242142 
	C224.594666,184.502472 223.195633,182.762817 221.553864,180.721313 
	C220.464966,181.977524 219.645538,182.922852 218.911102,183.898727 
	C218.911102,183.898727 218.918442,183.808716 218.365601,183.957169 
	C218.174698,184.273666 217.983795,184.590179 217.914673,184.916794 
	C217.914673,184.916794 217.903549,184.795105 217.371323,184.981293 
	C217.186035,185.296432 217.000732,185.611557 216.932388,185.931198 
	C216.932388,185.931198 216.919754,185.814850 216.379196,185.983734 
	C216.194092,186.299454 216.008972,186.615173 215.936249,186.937943 
	C215.936249,186.937943 215.927444,186.825668 215.393860,186.998840 
	C215.210648,187.313507 215.027435,187.628189 214.948593,187.948334 
	C214.948593,187.948334 214.941101,187.844101 214.401367,188.002319 
	C214.202499,188.306564 214.003632,188.610794 213.922913,188.924454 
	C213.922913,188.924454 213.913101,188.806320 213.376190,188.980972 
	C213.196289,189.300812 213.016388,189.620667 212.929230,189.931183 
	C212.929230,189.931183 212.902893,189.841782 212.317627,190.018311 
	C211.820511,190.642075 211.323395,191.265839 210.918427,191.916641 
	C210.918427,191.916641 210.925308,191.820862 210.376999,191.972427 
	C210.184052,192.285172 209.991119,192.597916 209.919144,192.920212 
	C209.919144,192.920212 209.908432,192.799362 209.373611,192.979965 
	C209.184769,193.293365 208.995926,193.606766 208.925964,193.925186 
	C208.925964,193.925186 208.912247,193.807007 208.374039,193.980911 
	C208.196487,194.301422 208.018936,194.621948 207.931198,194.931976 
	C207.931198,194.931976 207.904160,194.845688 207.318237,195.027939 
	C206.827026,195.654510 206.335815,196.281097 205.933273,196.931320 
	C205.933273,196.931320 205.940277,196.839828 205.396210,196.994385 
	C205.202072,197.303680 205.007935,197.612991 204.929153,197.929153 
	C204.929153,197.929153 204.918152,197.814102 204.382095,197.988358 
	C204.203247,198.307007 204.024399,198.625656 203.925385,198.931229 
	C203.925385,198.931229 203.895370,198.856094 203.275162,199.073013 
	C202.497589,199.816528 201.720016,200.560028 200.601685,200.693192 
	C192.373840,191.003952 190.384933,180.254791 195.667313,168.591171 
	C203.065613,152.255524 225.448303,146.108810 241.347168,160.771286 
	C261.323212,181.243393 269.359833,205.744965 265.683380,234.013794 
	C263.990112,247.033493 258.615051,258.773163 251.945343,269.953125 
	C251.945343,269.953125 251.900299,269.863464 251.296234,270.164673 
	C247.498734,274.750610 243.701233,279.336517 239.959900,283.979614 
	C239.959900,283.979614 239.963638,283.899536 239.410324,284.011749 
	C239.224411,284.320984 239.038498,284.630219 238.936584,284.935730 
	C238.936584,284.935730 238.892319,284.864227 238.265823,285.125763 
	C236.959229,286.141632 235.628555,287.128204 234.349579,288.177734 
	C208.232986,309.609375 169.585236,313.108734 140.255142,296.615936 
	C135.411148,293.892059 130.733124,290.873047 125.618065,287.869812 
	C125.618065,287.869812 125.238304,287.882874 125.049126,287.351471 
	C124.735924,287.160339 124.422722,286.969238 124.100609,286.892548 
	C124.100609,286.892548 124.214073,286.875214 124.034698,286.347168 
	C123.716064,286.174347 123.397438,286.001526 123.072884,285.912659 
	C123.072884,285.912659 123.152603,285.885681 122.898849,285.276733 
	C121.539825,283.564789 120.218857,282.682587 118.251411,284.703979 
	C115.431854,287.600861 112.413094,290.303864 109.195961,293.197601 
	C109.195961,293.197601 109.083923,293.479431 108.558998,293.786407 
	C105.507469,296.217316 102.455940,298.648193 98.756714,301.595062 
	C104.267693,305.997803 108.095352,309.055756 111.987823,312.025238 
	C111.987823,312.025238 111.894638,312.083008 112.131020,312.677277 
	C113.057381,313.167206 113.983749,313.657135 114.965218,314.054993 
	C114.965218,314.054993 114.869164,314.102814 115.112816,314.709198 
	C116.394211,315.502960 117.675606,316.296722 118.979500,317.015503 
	C118.979500,317.015503 118.911133,317.053650 119.245239,317.653076 
	C137.734131,329.574799 158.114960,335.461487 179.977646,335.653168 
	C191.877426,335.757507 203.799683,334.655670 215.824524,330.127838 
	C217.411194,329.479065 218.997849,328.830292 220.806976,328.259308 
	C220.806976,328.259308 220.946320,328.069244 221.715118,328.069244 
	C230.196274,323.420288 238.677444,318.771301 247.058273,314.077942 
	C247.058273,314.077942 247.112625,314.173248 247.785568,314.016998 
	C250.901093,311.376465 254.016632,308.735962 257.058960,306.062775 
	C257.058960,306.062775 257.052856,306.142670 257.603210,306.006653 
	C257.788055,305.691498 257.972900,305.376343 258.077576,305.070984 
	C258.077576,305.070984 258.105225,305.146881 258.740295,304.925659 
	C261.202576,302.312286 263.664825,299.698944 266.037781,297.032288 
	C266.037781,297.032288 266.086121,297.124390 266.716461,296.878998 
	C270.508514,291.600464 274.300537,286.321930 278.020233,281.014099 
	C278.020233,281.014099 278.051636,281.085541 278.672089,280.784851 
	C291.519928,259.640625 296.510132,236.603882 294.995392,212.072174 
	C294.808411,209.044250 293.604584,206.079102 293.043060,202.276245 
	C292.105957,198.536453 291.168854,194.796646 290.801056,190.636963 
	C288.229279,184.002533 285.657501,177.368088 283.083160,170.360092 
	C283.083160,170.360092 282.877441,170.048248 282.912628,169.499008 
	C282.635895,169.279587 282.359192,169.060181 282.082275,168.923172 
	C282.082275,168.923172 282.162354,168.903702 282.072998,168.191986 
	C276.748077,157.635406 269.815186,148.271606 260.853882,139.540283 
	C244.007568,124.608780 224.713730,119.835426 203.253754,126.876617 
	C175.659546,135.930527 159.873245,163.110825 165.202942,191.865204 
	C167.285309,203.099884 172.507034,212.931168 181.671402,222.010925 
	C188.237625,215.059570 194.607971,208.315567 201.625595,201.885117 
	C207.529984,207.589661 209.008041,215.016968 209.341110,223.419571 
	C209.295303,223.942596 209.249512,224.465637 208.973938,225.745163 
	C207.918610,229.124191 206.863281,232.503204 205.900742,235.911469 
	C205.900742,235.911469 205.907394,235.814407 205.349457,236.008530 
	C205.228897,236.363724 205.108322,236.718918 204.789520,237.240158 
	C204.789520,237.240158 204.855087,237.490295 204.313721,237.808517 
	C204.142014,238.185028 203.970322,238.561539 203.928589,238.923782 
	C203.928589,238.923782 203.896378,238.797073 203.363373,238.977890 
	C203.217422,239.310638 203.071472,239.643372 202.991501,239.989120 
	C202.991501,239.989120 202.969070,239.925720 202.446915,240.066132 
	C202.282227,240.370667 202.117538,240.675217 202.000443,241.000549 
	C202.000443,241.000549 201.978714,240.953384 201.461853,241.093445 
	C201.291977,241.391129 201.122086,241.688812 201.002090,242.001587 
	C201.002090,242.001587 200.986420,241.951889 200.470764,242.094376 
	C200.285507,242.388092 200.100250,242.681808 199.983871,242.988174 
	C199.983871,242.988174 199.981979,242.918167 199.424118,243.011398 
z"/>
<path fill="#CDF9EC" opacity="1.000000" stroke="none" 
	d="
M140.353973,261.573273 
	C121.861343,242.567780 111.017052,220.061783 107.848267,193.575211 
	C101.018402,136.487213 139.024048,81.878754 195.991425,69.582443 
	C235.931503,60.961430 271.439484,70.956276 301.315826,99.374382 
	C301.534882,99.582741 301.597534,99.955498 301.718658,100.219696 
	C295.151764,106.781418 288.601379,113.326660 281.821228,120.101479 
	C271.591248,110.266228 259.787811,103.044434 246.057587,98.904076 
	C199.016510,84.718819 149.100357,112.954590 138.138870,160.766907 
	C131.226135,190.919144 138.480438,217.788986 159.873566,241.152313 
	C158.567261,243.460617 157.200012,245.168381 155.628723,246.984131 
	C155.169556,247.283707 154.993546,247.531509 154.603058,247.924561 
	C153.823181,248.643478 153.336929,249.273361 152.891083,249.931808 
	C152.931503,249.960388 152.905991,249.864731 152.659515,249.953644 
	C152.227661,250.329330 152.042282,250.616119 151.904785,250.925598 
	C151.952682,250.948303 151.899780,250.856461 151.654587,250.948639 
	C151.224884,251.328125 151.040375,251.615433 150.903656,251.924820 
	C150.951447,251.946899 150.899200,251.855469 150.653839,251.947906 
	C150.224121,252.328110 150.039764,252.615860 149.902527,252.924683 
	C149.949646,252.945740 149.900009,252.855225 149.654266,252.948303 
	C149.224899,253.330368 149.041260,253.619370 148.902893,253.894669 
	C148.948135,253.880966 148.861557,253.842987 148.573395,253.934860 
	C147.811417,254.647720 147.337570,255.268692 146.887253,255.928177 
	C146.910782,255.966675 146.926834,255.877853 146.678085,255.974579 
	C146.226135,256.356171 146.022919,256.641052 145.533508,257.081726 
	C143.616180,258.682770 141.985077,260.128021 140.353973,261.573273 
z"/>
<path fill="#27E7A4" opacity="1.000000" stroke="none" 
	d="
M220.946320,328.069244 
	C220.946320,328.069244 220.806976,328.259308 220.282135,328.171539 
	C218.173172,328.393646 216.589020,328.703522 214.583069,329.012939 
	C210.731720,329.525513 207.275330,329.902954 203.877441,330.575836 
	C191.362946,333.053925 178.918671,334.316864 166.106277,332.127960 
	C153.984833,330.057037 142.161942,327.502930 131.093079,321.934143 
	C127.199478,319.975281 122.981178,318.661804 118.911133,317.053650 
	C118.911133,317.053650 118.979500,317.015503 118.937752,316.687561 
	C117.553726,315.607391 116.211441,314.855103 114.869156,314.102814 
	C114.869164,314.102814 114.965218,314.054993 114.910278,313.741882 
	C113.868446,312.980194 112.881538,312.531616 111.894638,312.083008 
	C111.894638,312.083008 111.987823,312.025238 111.951118,311.717010 
	C109.199898,308.080627 106.485382,304.752502 104.613907,302.457977 
	C106.445061,298.779907 107.764496,296.129669 109.083923,293.479431 
	C109.083923,293.479431 109.195961,293.197601 109.661255,293.361755 
	C112.631340,291.629028 115.026024,289.555450 117.681839,287.901062 
	C119.297127,286.894867 121.315369,286.535553 123.152603,285.885681 
	C123.152603,285.885681 123.072884,285.912659 123.183640,286.122314 
	C123.600960,286.513031 123.907516,286.694122 124.214073,286.875214 
	C124.214073,286.875214 124.100609,286.892548 124.207863,287.096558 
	C124.622849,287.494659 124.930580,287.688751 125.238312,287.882874 
	C125.238304,287.882874 125.618065,287.869812 125.842087,288.278748 
	C127.200928,290.090302 128.082245,291.866180 129.510788,292.836365 
	C140.686844,300.426453 152.956177,306.077515 166.259705,307.783020 
	C179.390335,309.466370 192.877655,310.823303 205.827408,305.593231 
	C208.068268,304.688202 210.747314,304.790222 212.895950,303.749695 
	C218.531967,301.020386 224.308441,298.376465 229.405991,294.808533 
	C233.085556,292.233093 235.766159,288.230377 238.892303,284.864227 
	C238.892319,284.864227 238.936584,284.935730 239.147202,284.846283 
	C239.559769,284.471069 239.761703,284.185303 239.963638,283.899536 
	C239.963638,283.899536 239.959900,283.979614 240.303192,283.980408 
	C247.070282,281.405701 250.747208,276.640503 251.900299,269.863464 
	C251.900299,269.863464 251.945343,269.953125 252.269897,269.925720 
	C253.588165,269.345398 255.059372,269.041443 255.498383,268.199371 
	C258.421356,262.592529 261.898987,257.108917 263.734467,251.136017 
	C267.422150,239.135773 269.064392,226.833618 268.208832,214.077927 
	C267.562958,204.448868 265.633636,195.344574 261.301910,186.919067 
	C257.548523,179.618454 252.964935,172.720474 248.425186,165.858292 
	C246.053146,162.272766 244.778961,159.166794 248.427338,155.752625 
	C248.824677,155.380814 248.760483,154.515793 248.942688,153.907227 
	C248.975037,153.934921 248.890167,153.942017 249.131592,153.842499 
	C249.562881,153.459229 249.752716,153.175476 249.955170,152.929901 
	C249.967804,152.968048 249.891525,152.942719 250.132782,152.841919 
	C250.561157,152.455185 250.748276,152.169250 250.947800,151.922577 
	C250.960205,151.961823 250.882034,151.936005 251.124359,151.835464 
	C251.553757,151.447693 251.740845,151.160461 251.940414,150.913300 
	C251.952911,150.953369 251.872818,150.928253 252.117218,150.829590 
	C252.548752,150.442154 252.735870,150.153366 252.920273,149.916351 
	C252.917557,149.968140 252.867752,149.877182 253.252975,149.910217 
	C254.738617,148.600769 255.839020,147.258286 256.964508,145.945496 
	C256.989563,145.975204 256.912628,145.964325 257.151245,145.862488 
	C257.583862,145.481674 257.777863,145.202698 257.980225,144.956711 
	C257.988525,144.989716 257.922974,144.971268 258.160706,144.866760 
	C258.586945,144.479340 258.775452,144.196442 258.966919,143.951263 
	C258.969879,143.988983 258.909851,143.942932 259.236694,143.938934 
	C260.878021,144.298050 262.747498,144.231430 263.416107,145.094772 
	C267.455566,150.310623 271.116547,155.818359 275.119141,161.064423 
	C277.243164,163.848221 279.800568,166.301315 282.162354,168.903702 
	C282.162354,168.903702 282.082275,168.923172 282.136902,169.127960 
	C282.420166,169.571259 282.648804,169.809753 282.877441,170.048248 
	C282.877441,170.048248 283.083160,170.360092 283.046173,170.972992 
	C285.416718,178.076218 287.824249,184.566528 290.231750,191.056839 
	C291.168854,194.796646 292.105957,198.536453 292.718567,202.970032 
	C292.341125,204.803619 292.165680,205.953140 292.255280,207.081635 
	C292.777008,213.654541 294.598694,220.405945 293.657959,226.752731 
	C291.876007,238.775558 288.892548,250.667053 285.672668,262.411469 
	C283.907806,268.848755 280.641144,274.874329 278.051636,281.085541 
	C278.051636,281.085541 278.020233,281.014099 277.703369,281.048065 
	C274.634796,284.482666 271.771515,287.800995 269.178711,291.318726 
	C267.891541,293.065033 267.101227,295.177551 266.086121,297.124390 
	C266.086121,297.124390 266.037781,297.032288 265.713257,297.028931 
	C262.960876,299.732697 260.533051,302.439789 258.105225,305.146881 
	C258.105225,305.146881 258.077576,305.070984 257.855743,305.154480 
	C257.440247,305.539581 257.246552,305.841125 257.052856,306.142670 
	C257.052856,306.142670 257.058960,306.062775 256.721466,306.041290 
	C253.293518,308.737610 250.203079,311.455444 247.112625,314.173248 
	C247.112625,314.173248 247.058273,314.077942 246.722931,314.056213 
	C240.895096,316.918396 235.370270,319.742889 229.922760,322.709351 
	C226.864594,324.374725 223.934250,326.274872 220.946320,328.069244 
z"/>
<path fill="#CDF9EC" opacity="1.000000" stroke="none" 
	d="
M241.124817,160.186737 
	C225.448303,146.108810 203.065613,152.255524 195.667313,168.591171 
	C190.384933,180.254791 192.373840,191.003952 200.699448,201.076065 
	C200.797211,201.458939 200.978378,201.571625 200.978348,201.571594 
	C194.607971,208.315567 188.237625,215.059570 181.671402,222.010925 
	C172.507034,212.931168 167.285309,203.099884 165.202942,191.865204 
	C159.873245,163.110825 175.659546,135.930527 203.253754,126.876617 
	C224.713730,119.835426 244.007568,124.608780 260.939941,140.133545 
	C260.320587,141.798843 259.615204,142.870880 258.909851,143.942932 
	C258.909851,143.942932 258.969879,143.988983 258.720978,144.044708 
	C258.289062,144.390732 258.106018,144.681000 257.922974,144.971268 
	C257.922974,144.971268 257.988525,144.989716 257.728302,145.040543 
	C257.282928,145.382355 257.097778,145.673340 256.912628,145.964325 
	C256.912628,145.964325 256.989563,145.975204 256.665405,146.063538 
	C255.183441,147.393646 254.025589,148.635422 252.867752,149.877182 
	C252.867752,149.877182 252.917557,149.968140 252.669678,150.006882 
	C252.238800,150.339844 252.055817,150.634048 251.872818,150.928253 
	C251.872818,150.928253 251.952911,150.953369 251.689514,151.002869 
	C251.244736,151.346893 251.063385,151.641449 250.882034,151.936005 
	C250.882034,151.936005 250.960205,151.961823 250.700531,152.015793 
	C250.257736,152.360748 250.074631,152.651733 249.891525,152.942719 
	C249.891525,152.942719 249.967804,152.968048 249.705872,153.019043 
	C249.259354,153.360687 249.074768,153.651352 248.890167,153.942017 
	C248.890167,153.942017 248.975037,153.934921 248.617340,153.991394 
	C245.881363,156.094162 243.503082,158.140457 241.124817,160.186737 
z"/>
<path fill="#2CE4A3" opacity="1.000000" stroke="none" 
	d="
M140.473572,261.810486 
	C141.985077,260.128021 143.616180,258.682770 145.786469,256.989746 
	C146.526031,256.453918 146.726425,256.165894 146.926834,255.877853 
	C146.926834,255.877853 146.910782,255.966675 147.225052,255.912323 
	C147.980072,255.186325 148.420807,254.514648 148.861557,253.842987 
	C148.861557,253.842987 148.948135,253.880966 149.147949,253.799805 
	C149.531845,253.430847 149.715927,253.143036 149.900009,252.855225 
	C149.900009,252.855225 149.949646,252.945740 150.147827,252.831253 
	C150.530426,252.429672 150.714813,252.142578 150.899200,251.855469 
	C150.899200,251.855469 150.951447,251.946899 151.148804,251.831696 
	C151.530716,251.429810 151.715256,251.143127 151.899780,250.856461 
	C151.899780,250.856461 151.952682,250.948303 152.149658,250.833435 
	C152.533096,250.433945 152.719543,250.149338 152.905991,249.864731 
	C152.905991,249.864731 152.931503,249.960388 153.189423,249.842621 
	C153.930450,249.095078 154.413559,248.465302 154.896667,247.835541 
	C154.993546,247.531509 155.169556,247.283707 156.014404,246.975800 
	C159.115967,246.205307 161.627808,245.551147 164.139648,244.896973 
	C164.139648,244.896973 164.049454,244.939545 164.093826,245.257477 
	C166.809662,246.677673 169.481125,247.779938 172.152588,248.882202 
	C172.152588,248.882202 172.052765,248.923264 172.263428,249.171875 
	C173.974747,250.045593 175.475174,250.671310 176.976151,251.295731 
	C182.277786,253.501190 192.901978,250.486771 195.960144,245.909698 
	C195.960144,245.909698 195.977783,245.983124 196.282288,245.959137 
	C197.362183,245.221817 198.137589,244.508514 198.912994,243.795212 
	C198.912994,243.795212 198.927109,243.914993 199.126373,243.832611 
	C199.544434,243.472885 199.763214,243.195526 199.981979,242.918167 
	C199.981979,242.918167 199.983871,242.988174 200.193054,242.888382 
	C200.596954,242.509689 200.791702,242.230789 200.986420,241.951904 
	C200.986420,241.951889 201.002090,242.001587 201.215363,241.898117 
	C201.612000,241.514236 201.795364,241.233810 201.978729,240.953384 
	C201.978714,240.953384 202.000443,241.000549 202.216599,240.893005 
	C202.611526,240.498886 202.790298,240.212296 202.969070,239.925720 
	C202.969070,239.925720 202.991501,239.989120 203.201096,239.863235 
	C203.572586,239.423920 203.734482,239.110489 203.896362,238.797073 
	C203.896378,238.797073 203.928589,238.923782 204.142151,238.776672 
	C204.522186,238.249817 204.688644,237.870056 204.855087,237.490295 
	C204.855087,237.490295 204.789520,237.240158 205.116501,237.007492 
	C205.598114,236.454697 205.752762,236.134552 205.907410,235.814407 
	C205.907394,235.814407 205.900742,235.911469 206.221008,235.874664 
	C209.217773,232.660507 211.143066,229.298782 209.203720,224.988663 
	C209.249512,224.465637 209.295303,223.942596 209.748932,222.863098 
	C210.767410,215.829590 209.321548,209.830276 206.132385,204.176163 
	C205.193604,202.511719 204.630600,200.635345 203.895370,198.856094 
	C203.895370,198.856094 203.925385,198.931229 204.142120,198.834290 
	C204.545288,198.429611 204.731720,198.121857 204.918152,197.814102 
	C204.918152,197.814102 204.929153,197.929153 205.133026,197.833344 
	C205.538010,197.438293 205.739136,197.139053 205.940277,196.839828 
	C205.940277,196.839828 205.933273,196.931320 206.230469,196.902054 
	C206.986511,196.197098 207.445343,195.521393 207.904175,194.845688 
	C207.904160,194.845688 207.931198,194.931976 208.144211,194.834167 
	C208.542236,194.426590 208.727249,194.116791 208.912247,193.807007 
	C208.912247,193.807007 208.925964,193.925186 209.129150,193.825195 
	C209.524384,193.416595 209.716400,193.107986 209.908432,192.799362 
	C209.908432,192.799362 209.919144,192.920212 210.123337,192.825195 
	C210.526794,192.427078 210.726059,192.123978 210.925323,191.820862 
	C210.925308,191.820862 210.918427,191.916641 211.214874,191.889862 
	C211.975189,191.189301 212.439041,190.515533 212.902893,189.841782 
	C212.902893,189.841782 212.929230,189.931183 213.139938,189.831207 
	C213.538132,189.422928 213.725616,189.114624 213.913116,188.806320 
	C213.913101,188.806320 213.922913,188.924454 214.126923,188.830719 
	C214.534317,188.439377 214.737717,188.141739 214.941101,187.844101 
	C214.941101,187.844101 214.948593,187.948334 215.152893,187.843811 
	C215.547256,187.434753 215.737350,187.130203 215.927429,186.825653 
	C215.927444,186.825668 215.936249,186.937943 216.141159,186.837036 
	C216.537308,186.429047 216.728531,186.121948 216.919754,185.814850 
	C216.919754,185.814850 216.932388,185.931198 217.135071,185.828583 
	C217.526367,185.415680 217.714966,185.105392 217.903549,184.795105 
	C217.903549,184.795105 217.914673,184.916794 218.119965,184.821716 
	C218.522995,184.420670 218.720718,184.114700 218.918442,183.808716 
	C218.918442,183.808716 218.911102,183.898727 219.246124,183.937225 
	C221.775467,184.949310 223.969803,185.922897 226.164124,186.896469 
	C226.164124,186.896469 226.070343,186.939987 226.054932,187.268677 
	C227.052139,188.720352 228.064774,189.843323 229.077408,190.966278 
	C229.077408,190.966278 229.008469,190.985489 229.031464,191.271118 
	C229.434723,192.018051 229.815002,192.479370 230.195267,192.940689 
	C230.195267,192.940689 230.096161,192.933472 230.061935,193.271454 
	C230.993546,195.747299 231.959381,197.885162 232.951416,200.370224 
	C233.666626,201.825592 234.355606,202.933762 235.044601,204.041916 
	C235.044601,204.041916 235.233124,204.204468 235.136139,204.785797 
	C235.673141,212.042175 236.383026,218.711319 236.902145,225.395264 
	C237.097763,227.914093 236.851639,230.467239 236.806885,233.004730 
	C236.692856,233.549713 236.578827,234.094681 235.983780,235.050842 
	C235.382156,236.363968 235.261551,237.265915 235.140930,238.167862 
	C235.140930,238.167862 235.098511,238.066513 234.829193,238.240326 
	C234.063797,240.312439 233.567734,242.210739 233.071671,244.109039 
	C233.071671,244.109039 233.044052,244.037933 232.843536,244.172852 
	C232.614868,244.652649 232.586731,244.997528 232.558578,245.342422 
	C232.558578,245.342422 232.490524,245.375198 232.154297,245.437195 
	C231.569107,246.369644 231.320145,247.240067 231.071182,248.110504 
	C231.071182,248.110504 231.043365,248.034012 230.810211,248.181549 
	C230.391983,248.906189 230.206924,249.483261 230.021851,250.060349 
	C230.021851,250.060349 229.998871,250.001846 229.771072,250.175369 
	C229.400085,250.735428 229.256897,251.121964 229.113708,251.508499 
	C229.113724,251.508499 229.177979,251.761185 228.856216,251.994141 
	C228.381836,252.541183 228.229218,252.855270 228.076599,253.169357 
	C228.076599,253.169357 228.078094,253.078278 227.750061,253.094910 
	C226.641998,254.450943 225.861984,255.790329 225.081985,257.129730 
	C225.081985,257.129730 225.048126,257.045044 224.699051,257.044342 
	C223.678711,258.138763 223.007446,259.233917 222.336182,260.329071 
	C222.336197,260.329071 222.187210,260.227478 221.987610,260.304382 
	C221.631073,260.718262 221.474152,261.055267 221.317230,261.392273 
	C221.317215,261.392273 221.278625,261.271973 221.045013,261.330811 
	C220.641159,261.723846 220.470932,262.058075 220.300720,262.392303 
	C220.300720,262.392303 220.278778,262.205811 219.956390,262.213501 
	C218.788101,263.202271 217.942200,264.183350 217.096298,265.164398 
	C217.096298,265.164398 217.073242,265.070099 216.860840,265.151733 
	C216.440018,265.521851 216.231613,265.810303 216.023193,266.098755 
	C216.023193,266.098755 216.022568,266.022461 215.813995,266.112091 
	C215.397644,266.473114 215.189865,266.744476 214.982071,267.015869 
	C214.982071,267.015869 214.992264,266.982941 214.694366,267.004395 
	C213.955170,267.422363 213.513885,267.818878 213.072586,268.215393 
	C213.072586,268.215393 213.064224,268.083160 212.866577,268.160095 
	C212.447556,268.514191 212.226166,268.791382 212.004776,269.068604 
	C212.004791,269.068604 212.009079,269.003845 211.642075,268.989441 
	C208.215622,270.697662 205.156174,272.420349 202.096725,274.143005 
	C202.096725,274.143005 202.024734,274.034760 201.701843,274.028381 
	C199.903732,274.659119 198.428482,275.296173 196.953232,275.933228 
	C196.953232,275.933228 196.566833,276.115875 195.889587,276.062195 
	C187.008942,276.396484 178.805542,276.784485 170.602158,277.172485 
	C158.691040,275.916809 149.239807,269.780457 140.473572,261.810486 
z"/>
<path fill="#45D19E" opacity="1.000000" stroke="none" 
	d="
M241.235992,160.479004 
	C243.503082,158.140457 245.881363,156.094162 248.584991,153.963699 
	C248.760483,154.515793 248.824677,155.380814 248.427338,155.752625 
	C244.778961,159.166794 246.053146,162.272766 248.425186,165.858292 
	C252.964935,172.720474 257.548523,179.618454 261.301910,186.919067 
	C265.633636,195.344574 267.562958,204.448868 268.208832,214.077927 
	C269.064392,226.833618 267.422150,239.135773 263.734467,251.136017 
	C261.898987,257.108917 258.421356,262.592529 255.498383,268.199371 
	C255.059372,269.041443 253.588165,269.345398 252.224243,269.904907 
	C258.615051,258.773163 263.990112,247.033493 265.683380,234.013794 
	C269.359833,205.744965 261.323212,181.243393 241.235992,160.479004 
z"/>
<path fill="#45D19E" opacity="1.000000" stroke="none" 
	d="
M238.579071,284.994995 
	C235.766159,288.230377 233.085556,292.233093 229.405991,294.808533 
	C224.308441,298.376465 218.531967,301.020386 212.895950,303.749695 
	C210.747314,304.790222 208.068268,304.688202 205.827408,305.593231 
	C192.877655,310.823303 179.390335,309.466370 166.259705,307.783020 
	C152.956177,306.077515 140.686844,300.426453 129.510788,292.836365 
	C128.082245,291.866180 127.200928,290.090302 126.022247,288.339050 
	C130.733124,290.873047 135.411148,293.892059 140.255142,296.615936 
	C169.585236,313.108734 208.232986,309.609375 234.349579,288.177734 
	C235.628555,287.128204 236.959229,286.141632 238.579071,284.994995 
z"/>
<path fill="#45D19E" opacity="1.000000" stroke="none" 
	d="
M119.078186,317.353363 
	C122.981178,318.661804 127.199478,319.975281 131.093079,321.934143 
	C142.161942,327.502930 153.984833,330.057037 166.106277,332.127960 
	C178.918671,334.316864 191.362946,333.053925 203.877441,330.575836 
	C207.275330,329.902954 210.731720,329.525513 214.597595,329.299164 
	C215.049591,329.776398 215.065231,329.966919 215.080856,330.157410 
	C203.799683,334.655670 191.877426,335.757507 179.977646,335.653168 
	C158.114960,335.461487 137.734131,329.574799 119.078186,317.353363 
z"/>
<path fill="#4DCB9D" opacity="1.000000" stroke="none" 
	d="
M278.361877,280.935181 
	C280.641144,274.874329 283.907806,268.848755 285.672668,262.411469 
	C288.892548,250.667053 291.876007,238.775558 293.657959,226.752731 
	C294.598694,220.405945 292.777008,213.654541 292.255280,207.081635 
	C292.165680,205.953140 292.341125,204.803619 292.633057,203.374329 
	C293.604584,206.079102 294.808411,209.044250 294.995392,212.072174 
	C296.510132,236.603882 291.519928,259.640625 278.361877,280.935181 
z"/>
<path fill="#45D19E" opacity="1.000000" stroke="none" 
	d="
M259.236664,143.938919 
	C259.615204,142.870880 260.320587,141.798843 261.137573,140.423004 
	C269.815186,148.271606 276.748077,157.635406 282.117676,168.547852 
	C279.800568,166.301315 277.243164,163.848221 275.119141,161.064423 
	C271.116547,155.818359 267.455566,150.310623 263.416107,145.094772 
	C262.747498,144.231430 260.878021,144.298050 259.236664,143.938919 
z"/>
<path fill="#4DCB9D" opacity="1.000000" stroke="none" 
	d="
M221.330719,328.069244 
	C223.934250,326.274872 226.864594,324.374725 229.922760,322.709351 
	C235.370270,319.742889 240.895096,316.918396 246.773087,314.078430 
	C238.677444,318.771301 230.196274,323.420288 221.330719,328.069244 
z"/>
<path fill="#45D19E" opacity="1.000000" stroke="none" 
	d="
M108.821465,293.632935 
	C107.764496,296.129669 106.445061,298.779907 104.613907,302.457977 
	C106.485382,304.752502 109.199898,308.080627 111.918709,311.761230 
	C108.095352,309.055756 104.267693,305.997803 98.756714,301.595062 
	C102.455940,298.648193 105.507469,296.217316 108.821465,293.632935 
z"/>
<path fill="#4CCE9C" opacity="1.000000" stroke="none" 
	d="
M195.589722,245.959320 
	C192.901978,250.486771 182.277786,253.501190 176.976151,251.295731 
	C175.475174,250.671310 173.974747,250.045593 172.250732,249.119415 
	C180.084854,250.579803 187.892014,250.275116 195.589722,245.959320 
z"/>
<path fill="#4CCE9C" opacity="1.000000" stroke="none" 
	d="
M203.585266,198.964554 
	C204.630600,200.635345 205.193604,202.511719 206.132385,204.176163 
	C209.321548,209.830276 210.767410,215.829590 209.948532,222.520599 
	C209.008041,215.016968 207.529984,207.589661 201.301987,201.728363 
	C200.978378,201.571625 200.797211,201.458939 200.869812,201.381226 
	C201.720016,200.560028 202.497589,199.816528 203.585266,198.964554 
z"/>
<path fill="#45D19E" opacity="1.000000" stroke="none" 
	d="
M290.516418,190.846893 
	C287.824249,184.566528 285.416718,178.076218 283.047455,171.159790 
	C285.657501,177.368088 288.229279,184.002533 290.516418,190.846893 
z"/>
<path fill="#45D19E" opacity="1.000000" stroke="none" 
	d="
M251.598267,270.014069 
	C250.747208,276.640503 247.070282,281.405701 240.275116,283.951843 
	C243.701233,279.336517 247.498734,274.750610 251.598267,270.014069 
z"/>
<path fill="#4DCB9D" opacity="1.000000" stroke="none" 
	d="
M266.401306,297.001709 
	C267.101227,295.177551 267.891541,293.065033 269.178711,291.318726 
	C271.771515,287.800995 274.634796,284.482666 277.739502,281.062714 
	C274.300537,286.321930 270.508514,291.600464 266.401306,297.001709 
z"/>
<path fill="#55C99E" opacity="1.000000" stroke="none" 
	d="
M236.920410,232.591675 
	C236.851639,230.467239 237.097763,227.914093 236.902145,225.395264 
	C236.383026,218.711319 235.673141,212.042175 235.090393,204.901550 
	C238.842468,213.474106 238.779236,222.768997 236.920410,232.591675 
z"/>
<path fill="#55C99E" opacity="1.000000" stroke="none" 
	d="
M170.932159,277.444153 
	C178.805542,276.784485 187.008942,276.396484 195.676331,276.048279 
	C187.847595,276.630646 179.554886,277.173248 170.932159,277.444153 
z"/>
<path fill="#45D19E" opacity="1.000000" stroke="none" 
	d="
M123.025726,285.581207 
	C121.315369,286.535553 119.297127,286.894867 117.681839,287.901062 
	C115.026024,289.555450 112.631340,291.629028 109.802971,293.307739 
	C112.413094,290.303864 115.431854,287.600861 118.251411,284.703979 
	C120.218857,282.682587 121.539825,283.564789 123.025726,285.581207 
z"/>
<path fill="#4DCB9D" opacity="1.000000" stroke="none" 
	d="
M247.449097,314.095123 
	C250.203079,311.455444 253.293518,308.737610 256.758057,306.057617 
	C254.016632,308.735962 250.901093,311.376465 247.449097,314.095123 
z"/>
<path fill="#4DCB9D" opacity="1.000000" stroke="none" 
	d="
M258.422760,305.036255 
	C260.533051,302.439789 262.960876,299.732697 265.757904,297.055603 
	C263.664825,299.698944 261.202576,302.312286 258.422760,305.036255 
z"/>
<path fill="#55C99E" opacity="1.000000" stroke="none" 
	d="
M202.464279,274.134003 
	C205.156174,272.420349 208.215622,270.697662 211.671265,269.003571 
	C208.988922,270.729767 205.910370,272.427368 202.464279,274.134003 
z"/>
<path fill="#4CCE9C" opacity="1.000000" stroke="none" 
	d="
M164.033722,244.596802 
	C161.627808,245.551147 159.115967,246.205307 156.218445,246.867813 
	C157.200012,245.168381 158.567261,243.460617 160.054977,241.448822 
	C161.426254,242.195419 162.677032,243.246033 164.033722,244.596802 
z"/>
<path fill="#4CCE9C" opacity="1.000000" stroke="none" 
	d="
M209.088837,225.366913 
	C211.143066,229.298782 209.217773,232.660507 206.174622,235.860046 
	C206.863281,232.503204 207.918610,229.124191 209.088837,225.366913 
z"/>
<path fill="#4CCE9C" opacity="1.000000" stroke="none" 
	d="
M226.078903,186.569305 
	C223.969803,185.922897 221.775467,184.949310 219.203629,183.921967 
	C219.645538,182.922852 220.464966,181.977524 221.553864,180.721313 
	C223.195633,182.762817 224.594666,184.502472 226.078903,186.569305 
z"/>
<path fill="#4CCE9C" opacity="1.000000" stroke="none" 
	d="
M171.963684,248.587250 
	C169.481125,247.779938 166.809662,246.677673 164.114380,245.212036 
	C166.651962,245.996536 169.213364,247.144409 171.963684,248.587250 
z"/>
<path fill="#4CCE9C" opacity="1.000000" stroke="none" 
	d="
M232.925217,200.023010 
	C231.959381,197.885162 230.993546,195.747299 230.075806,193.223755 
	C231.334290,194.995316 232.544678,197.152573 233.566605,199.657074 
	C233.378159,200.004318 232.925217,200.023010 232.925217,200.023010 
z"/>
<path fill="#55C99E" opacity="1.000000" stroke="none" 
	d="
M233.360550,243.891357 
	C233.567734,242.210739 234.063797,240.312439 234.882980,238.229187 
	C234.687210,239.920715 234.168320,241.797195 233.360550,243.891357 
z"/>
<path fill="#55C99E" opacity="1.000000" stroke="none" 
	d="
M225.389343,257.013733 
	C225.861984,255.790329 226.641998,254.450943 227.794373,253.105377 
	C227.343399,254.365372 226.520035,255.631546 225.389343,257.013733 
z"/>
<path fill="#45D19E" opacity="1.000000" stroke="none" 
	d="
M114.990982,314.406006 
	C116.211441,314.855103 117.553726,315.607391 118.926498,316.725067 
	C117.675606,316.296722 116.394211,315.502960 114.990982,314.406006 
z"/>
<path fill="#4CCE9C" opacity="1.000000" stroke="none" 
	d="
M229.005112,190.647141 
	C228.064774,189.843323 227.052139,188.720352 226.076813,187.221848 
	C227.053680,188.006882 227.993240,189.167435 229.005112,190.647141 
z"/>
<path fill="#55C99E" opacity="1.000000" stroke="none" 
	d="
M222.616486,260.195465 
	C223.007446,259.233917 223.678711,258.138763 224.741119,257.061951 
	C224.387100,258.074097 223.641937,259.067963 222.616486,260.195465 
z"/>
<path fill="#55C99E" opacity="1.000000" stroke="none" 
	d="
M217.403458,265.080139 
	C217.942200,264.183350 218.788101,263.202271 220.001770,262.295715 
	C219.483246,263.245392 218.596939,264.120605 217.403458,265.080139 
z"/>
<path fill="#55C99E" opacity="1.000000" stroke="none" 
	d="
M197.311478,275.980652 
	C198.428482,275.296173 199.903732,274.659119 201.754120,274.067017 
	C200.642761,274.750732 199.156235,275.389404 197.311478,275.980652 
z"/>
<path fill="#4DCB9D" opacity="1.000000" stroke="none" 
	d="
M215.452698,330.142639 
	C215.065231,329.966919 215.049591,329.776398 215.019409,329.299622 
	C216.589020,328.703522 218.173172,328.393646 220.170914,328.132629 
	C218.997849,328.830292 217.411194,329.479065 215.452698,330.142639 
z"/>
<path fill="#55C99E" opacity="1.000000" stroke="none" 
	d="
M232.951416,200.370224 
	C232.925217,200.023010 233.378159,200.004318 233.604797,200.000549 
	C234.246307,201.104599 234.661179,202.212418 235.060333,203.681091 
	C234.355606,202.933762 233.666626,201.825592 232.951416,200.370224 
z"/>
<path fill="#45D19E" opacity="1.000000" stroke="none" 
	d="
M112.012833,312.380127 
	C112.881538,312.531616 113.868446,312.980194 114.882729,313.787933 
	C113.983749,313.657135 113.057381,313.167206 112.012833,312.380127 
z"/>
<path fill="#4CCE9C" opacity="1.000000" stroke="none" 
	d="
M212.610260,189.930054 
	C212.439041,190.515533 211.975189,191.189301 211.168793,191.876343 
	C211.323395,191.265839 211.820511,190.642075 212.610260,189.930054 
z"/>
<path fill="#4CCE9C" opacity="1.000000" stroke="none" 
	d="
M207.611206,194.936813 
	C207.445343,195.521393 206.986511,196.197098 206.186127,196.890228 
	C206.335815,196.281097 206.827026,195.654510 207.611206,194.936813 
z"/>
<path fill="#4CCE9C" opacity="1.000000" stroke="none" 
	d="
M198.611084,243.894821 
	C198.137589,244.508514 197.362183,245.221817 196.248169,245.942963 
	C196.709427,245.298660 197.509293,244.646545 198.611084,243.894821 
z"/>
<path fill="#55C99E" opacity="1.000000" stroke="none" 
	d="
M235.421509,237.959991 
	C235.261551,237.265915 235.382156,236.363968 235.778961,235.249466 
	C235.937485,235.941986 235.819794,236.847046 235.421509,237.959991 
z"/>
<path fill="#55C99E" opacity="1.000000" stroke="none" 
	d="
M231.344818,247.945343 
	C231.320145,247.240067 231.569107,246.369644 232.179504,245.465332 
	C232.233444,246.214355 231.925949,246.997269 231.344818,247.945343 
z"/>
<path fill="#4CCE9C" opacity="1.000000" stroke="none" 
	d="
M230.147949,192.635101 
	C229.815002,192.479370 229.434723,192.018051 229.048050,191.239410 
	C229.394638,191.391220 229.747620,191.860367 230.147949,192.635101 
z"/>
<path fill="#55C99E" opacity="1.000000" stroke="none" 
	d="
M213.368774,268.153076 
	C213.513885,267.818878 213.955170,267.422363 214.711060,267.008606 
	C214.572113,267.357849 214.118546,267.724304 213.368774,268.153076 
z"/>
<path fill="#55C99E" opacity="1.000000" stroke="none" 
	d="
M230.300110,249.916718 
	C230.206924,249.483261 230.391983,248.906189 230.849838,248.172302 
	C230.941208,248.601349 230.759781,249.187210 230.300110,249.916718 
z"/>
<path fill="#55C99E" opacity="1.000000" stroke="none" 
	d="
M221.570862,261.289978 
	C221.474152,261.055267 221.631073,260.718262 222.076019,260.322021 
	C222.184189,260.571045 222.004349,260.879333 221.570862,261.289978 
z"/>
<path fill="#55C99E" opacity="1.000000" stroke="none" 
	d="
M220.562347,262.303223 
	C220.470932,262.058075 220.641159,261.723846 221.106262,261.346191 
	C221.208771,261.606537 221.016388,261.910339 220.562347,262.303223 
z"/>
<path fill="#55C99E" opacity="1.000000" stroke="none" 
	d="
M215.257965,266.976868 
	C215.189865,266.744476 215.397644,266.473114 215.852051,266.114624 
	C215.910400,266.330963 215.722122,266.634430 215.257965,266.976868 
z"/>
<path fill="#55C99E" opacity="1.000000" stroke="none" 
	d="
M232.761261,245.184235 
	C232.586731,244.997528 232.614868,244.652649 232.880615,244.163849 
	C233.066772,244.355331 233.015350,244.690689 232.761261,245.184235 
z"/>
<path fill="#55C99E" opacity="1.000000" stroke="none" 
	d="
M216.294937,266.031982 
	C216.231613,265.810303 216.440018,265.521851 216.909302,265.149109 
	C216.969009,265.364960 216.767838,265.665100 216.294937,266.031982 
z"/>
<path fill="#55C99E" opacity="1.000000" stroke="none" 
	d="
M212.285065,269.025146 
	C212.226166,268.791382 212.447556,268.514191 212.932632,268.165222 
	C212.986008,268.389526 212.775681,268.685608 212.285065,269.025146 
z"/>
<path fill="#4DCB9D" opacity="1.000000" stroke="none" 
	d="
M257.328033,306.074646 
	C257.246552,305.841125 257.440247,305.539581 257.895844,305.149597 
	C257.972900,305.376343 257.788055,305.691498 257.328033,306.074646 
z"/>
<path fill="#45D19E" opacity="1.000000" stroke="none" 
	d="
M125.143723,287.617188 
	C124.930580,287.688751 124.622849,287.494659 124.212318,287.039337 
	C124.422722,286.969238 124.735924,287.160339 125.143723,287.617188 
z"/>
<path fill="#45D19E" opacity="1.000000" stroke="none" 
	d="
M124.124390,286.611206 
	C123.907516,286.694122 123.600960,286.513031 123.186600,286.080322 
	C123.397438,286.001526 123.716064,286.174347 124.124390,286.611206 
z"/>
<path fill="#45D19E" opacity="1.000000" stroke="none" 
	d="
M239.686981,283.955627 
	C239.761703,284.185303 239.559769,284.471069 239.105194,284.848145 
	C239.038498,284.630219 239.224411,284.320984 239.686981,283.955627 
z"/>
<path fill="#4CCE9C" opacity="1.000000" stroke="none" 
	d="
M205.668243,196.917114 
	C205.739136,197.139053 205.538010,197.438293 205.075348,197.829910 
	C205.007935,197.612991 205.202072,197.303680 205.668243,196.917114 
z"/>
<path fill="#45D19E" opacity="1.000000" stroke="none" 
	d="
M282.895020,169.773621 
	C282.648804,169.809753 282.420166,169.571259 282.136993,169.086761 
	C282.359192,169.060181 282.635895,169.279587 282.895020,169.773621 
z"/>
<path fill="#4CCE9C" opacity="1.000000" stroke="none" 
	d="
M218.642029,183.882935 
	C218.720718,184.114700 218.522995,184.420670 218.059082,184.816650 
	C217.983795,184.590179 218.174698,184.273666 218.642029,183.882935 
z"/>
<path fill="#4CCE9C" opacity="1.000000" stroke="none" 
	d="
M217.637436,184.888199 
	C217.714966,185.105392 217.526367,185.415680 217.076599,185.826324 
	C217.000732,185.611557 217.186035,185.296432 217.637436,184.888199 
z"/>
<path fill="#4CCE9C" opacity="1.000000" stroke="none" 
	d="
M216.649475,185.899292 
	C216.728531,186.121948 216.537308,186.429047 216.084961,186.833527 
	C216.008972,186.615173 216.194092,186.299454 216.649475,185.899292 
z"/>
<path fill="#4CCE9C" opacity="1.000000" stroke="none" 
	d="
M215.660645,186.912247 
	C215.737350,187.130203 215.547256,187.434753 215.100708,187.841064 
	C215.027435,187.628189 215.210648,187.313507 215.660645,186.912247 
z"/>
<path fill="#4CCE9C" opacity="1.000000" stroke="none" 
	d="
M214.671234,187.923218 
	C214.737717,188.141739 214.534317,188.439377 214.067841,188.826019 
	C214.003632,188.610794 214.202499,188.306564 214.671234,187.923218 
z"/>
<path fill="#4CCE9C" opacity="1.000000" stroke="none" 
	d="
M213.644653,188.893646 
	C213.725616,189.114624 213.538132,189.422928 213.093567,189.835876 
	C213.016388,189.620667 213.196289,189.300812 213.644653,188.893646 
z"/>
<path fill="#4CCE9C" opacity="1.000000" stroke="none" 
	d="
M210.651154,191.896637 
	C210.726059,192.123978 210.526794,192.427078 210.062866,192.820435 
	C209.991119,192.597916 210.184052,192.285172 210.651154,191.896637 
z"/>
<path fill="#4CCE9C" opacity="1.000000" stroke="none" 
	d="
M209.641022,192.889664 
	C209.716400,193.107986 209.524384,193.416595 209.069733,193.822693 
	C208.995926,193.606766 209.184769,193.293365 209.641022,192.889664 
z"/>
<path fill="#4CCE9C" opacity="1.000000" stroke="none" 
	d="
M208.643143,193.893951 
	C208.727249,194.116791 208.542236,194.426590 208.099304,194.839417 
	C208.018936,194.621948 208.196487,194.301422 208.643143,193.893951 
z"/>
<path fill="#4CCE9C" opacity="1.000000" stroke="none" 
	d="
M204.650116,197.901230 
	C204.731720,198.121857 204.545288,198.429611 204.102203,198.840836 
	C204.024399,198.625656 204.203247,198.307007 204.650116,197.901230 
z"/>
<path fill="#4CCE9C" opacity="1.000000" stroke="none" 
	d="
M205.628433,235.911469 
	C205.752762,236.134552 205.598114,236.454697 205.215622,236.924469 
	C205.108322,236.718918 205.228897,236.363724 205.628433,235.911469 
z"/>
<path fill="#4CCE9C" opacity="1.000000" stroke="none" 
	d="
M204.584412,237.649414 
	C204.688644,237.870056 204.522186,238.249817 204.077179,238.783813 
	C203.970322,238.561539 204.142014,238.185028 204.584412,237.649414 
z"/>
<path fill="#4CCE9C" opacity="1.000000" stroke="none" 
	d="
M203.629868,238.887482 
	C203.734482,239.110489 203.572586,239.423920 203.168106,239.856735 
	C203.071472,239.643372 203.217422,239.310638 203.629868,238.887482 
z"/>
<path fill="#4CCE9C" opacity="1.000000" stroke="none" 
	d="
M202.707993,239.995926 
	C202.790298,240.212296 202.611526,240.498886 202.192810,240.882599 
	C202.117538,240.675217 202.282227,240.370667 202.707993,239.995926 
z"/>
<path fill="#4CCE9C" opacity="1.000000" stroke="none" 
	d="
M201.720291,241.023407 
	C201.795364,241.233810 201.612000,241.514236 201.190414,241.890579 
	C201.122086,241.688812 201.291977,241.391129 201.720291,241.023407 
z"/>
<path fill="#4CCE9C" opacity="1.000000" stroke="none" 
	d="
M200.728607,242.023132 
	C200.791702,242.230789 200.596954,242.509689 200.158600,242.882050 
	C200.100250,242.681808 200.285507,242.388092 200.728607,242.023132 
z"/>
<path fill="#4CCE9C" opacity="1.000000" stroke="none" 
	d="
M199.703049,242.964783 
	C199.763214,243.195526 199.544434,243.472885 199.066162,243.829773 
	C199.012466,243.610001 199.218292,243.310699 199.703049,242.964783 
z"/>
<path fill="#55C99E" opacity="1.000000" stroke="none" 
	d="
M229.376862,251.334457 
	C229.256897,251.121964 229.400085,250.735428 229.802307,250.171997 
	C229.920883,250.383530 229.780441,250.771973 229.376862,251.334457 
z"/>
<path fill="#55C99E" opacity="1.000000" stroke="none" 
	d="
M228.342590,253.063507 
	C228.229218,252.855270 228.381836,252.541183 228.757477,252.079254 
	C228.856522,252.273499 228.732544,252.615570 228.342590,253.063507 
z"/>
<path fill="#4CCE9C" opacity="1.000000" stroke="none" 
	d="
M148.573395,253.934860 
	C148.420807,254.514648 147.980072,255.186325 147.201523,255.873840 
	C147.337570,255.268692 147.811417,254.647720 148.573395,253.934860 
z"/>
<path fill="#4CCE9C" opacity="1.000000" stroke="none" 
	d="
M154.603058,247.924561 
	C154.413559,248.465302 153.930450,249.095078 153.149017,249.814026 
	C153.336929,249.273361 153.823181,248.643478 154.603058,247.924561 
z"/>
<path fill="#4CCE9C" opacity="1.000000" stroke="none" 
	d="
M146.678085,255.974579 
	C146.726425,256.165894 146.526031,256.453918 146.072662,256.833923 
	C146.022919,256.641052 146.226135,256.356171 146.678085,255.974579 
z"/>
<path fill="#4CCE9C" opacity="1.000000" stroke="none" 
	d="
M149.654266,252.948303 
	C149.715927,253.143036 149.531845,253.430847 149.102692,253.813507 
	C149.041260,253.619370 149.224899,253.330368 149.654266,252.948303 
z"/>
<path fill="#4CCE9C" opacity="1.000000" stroke="none" 
	d="
M152.659515,249.953644 
	C152.719543,250.149338 152.533096,250.433945 152.101776,250.810730 
	C152.042282,250.616119 152.227661,250.329330 152.659515,249.953644 
z"/>
<path fill="#4CCE9C" opacity="1.000000" stroke="none" 
	d="
M151.654587,250.948639 
	C151.715256,251.143127 151.530716,251.429810 151.101013,251.809601 
	C151.040375,251.615433 151.224884,251.328125 151.654587,250.948639 
z"/>
<path fill="#4CCE9C" opacity="1.000000" stroke="none" 
	d="
M150.653839,251.947906 
	C150.714813,252.142578 150.530426,252.429672 150.100708,252.810181 
	C150.039764,252.615860 150.224121,252.328110 150.653839,251.947906 
z"/>
<path fill="#45D19E" opacity="1.000000" stroke="none" 
	d="
M253.252975,149.910217 
	C254.025589,148.635422 255.183441,147.393646 256.640381,146.033844 
	C255.839020,147.258286 254.738617,148.600769 253.252975,149.910217 
z"/>
<path fill="#45D19E" opacity="1.000000" stroke="none" 
	d="
M258.160706,144.866760 
	C258.106018,144.681000 258.289062,144.390732 258.718018,144.007004 
	C258.775452,144.196442 258.586945,144.479340 258.160706,144.866760 
z"/>
<path fill="#45D19E" opacity="1.000000" stroke="none" 
	d="
M252.117218,150.829590 
	C252.055817,150.634048 252.238800,150.339844 252.672394,149.955109 
	C252.735870,150.153366 252.548752,150.442154 252.117218,150.829590 
z"/>
<path fill="#45D19E" opacity="1.000000" stroke="none" 
	d="
M250.132782,152.841919 
	C250.074631,152.651733 250.257736,152.360748 250.688110,151.976547 
	C250.748276,152.169250 250.561157,152.455185 250.132782,152.841919 
z"/>
<path fill="#45D19E" opacity="1.000000" stroke="none" 
	d="
M249.131592,153.842499 
	C249.074768,153.651352 249.259354,153.360687 249.693253,152.980881 
	C249.752716,153.175476 249.562881,153.459229 249.131592,153.842499 
z"/>
<path fill="#45D19E" opacity="1.000000" stroke="none" 
	d="
M257.151245,145.862488 
	C257.097778,145.673340 257.282928,145.382355 257.719971,145.007538 
	C257.777863,145.202698 257.583862,145.481674 257.151245,145.862488 
z"/>
<path fill="#45D19E" opacity="1.000000" stroke="none" 
	d="
M251.124359,151.835464 
	C251.063385,151.641449 251.244736,151.346893 251.677002,150.962799 
	C251.740845,151.160461 251.553757,151.447693 251.124359,151.835464 
z"/>
</svg>