<svg width="1700" height="1700" viewBox="0 0 1700 1700" fill="none" xmlns="http://www.w3.org/2000/svg">
<rect width="1700" height="1700" fill="black"/>
<path d="M1424.11 999.088C1392.43 979.988 1324.62 974.501 1222.42 982.768C1255.13 882.458 1292.26 709.561 1195.37 630.132C1153 595.389 1087.44 582.739 1010.65 594.498C987.733 598.026 963.573 603.692 938.736 611.353C864.546 499.248 766.588 435 669.699 435C557.237 435 453.613 507.444 377.855 638.934C294.222 784.214 250 993.28 250 1243.61V1245.96L278.08 1264.63L280.253 1263.74C488.25 1176.37 776.565 1094.98 1033.84 1051.01C1041.72 1114.93 1045.71 1179.72 1045.71 1243.65V1245.85L1072.01 1265.1L1074.11 1264.42C1077.96 1263.17 1459.03 1140.06 1449.84 1036.93C1448.87 1026.17 1443.64 1010.85 1424.11 999.088ZM1406.43 1040.82C1408.82 1067.61 1288.2 1141.41 1121.47 1202.17C1153.65 1149.5 1183.65 1088 1206.7 1027.38C1307.09 1017.94 1376.22 1021.15 1401.62 1036.47C1406.18 1039.21 1406.43 1040.82 1406.43 1040.82ZM1159.1 1032.48C1138.96 1081.87 1114.55 1130.36 1087.97 1173.91C1086.37 1129.44 1083.09 1085.75 1078.28 1043.7C1106.54 1039.32 1133.69 1035.54 1159.1 1032.44M1167.72 663.842C1226.98 712.412 1230.12 833.14 1176.24 987.186C1144.13 990.714 1109.35 995.418 1072.83 1001.15C1052.98 863.037 1015.85 745.052 962.397 650.301C986.878 643.032 1005.59 639.397 1017.24 637.58C1081.59 627.709 1135.04 637.045 1167.72 663.842ZM669.663 478.616C756.931 478.616 833.544 528.112 897.472 625.785C699.631 702.969 486.254 895.892 295.041 1170.45C307.905 834.387 429.453 478.616 669.699 478.616M329.428 1197.14C567.536 853.416 781.447 717.721 920.705 664.519C970.379 754.923 1007.44 873.727 1028 1008.57C799.514 1048.12 527.697 1121.56 329.428 1197.14Z" fill="white"/>
</svg>
