<svg version="1.1" id="Layer_1" xmlns="http://www.w3.org/2000/svg" xmlns:xlink="http://www.w3.org/1999/xlink" x="0px" y="0px"
	 width="100%" viewBox="0 0 400 400" enable-background="new 0 0 400 400" xml:space="preserve">
<path fill="#000000" opacity="1.000000" stroke="none" 
	d="
M263.826843,200.281555 
	C251.994171,202.403732 240.483215,201.144547 229.022842,201.316467 
	C212.474655,201.564713 201.369553,212.389221 201.348862,228.840515 
	C201.319931,251.829971 201.337433,274.819519 201.353790,297.809021 
	C201.360474,307.228088 201.365448,305.349640 193.993851,305.358429 
	C163.674408,305.394592 133.354889,305.380981 103.035393,305.377411 
	C96.104721,305.376617 95.942772,305.251129 95.946381,298.482513 
	C95.964127,265.165100 95.979103,231.847610 96.069054,198.530334 
	C96.089081,191.113434 97.058022,190.617630 103.840912,193.879059 
	C144.392349,213.377472 193.581451,187.454865 200.652557,142.859421 
	C204.428070,119.048378 219.425247,102.451050 241.731140,97.397888 
	C273.586609,90.181381 304.383423,114.602287 305.504333,147.236938 
	C306.308472,170.649414 290.633362,194.263123 263.826843,200.281555 
z"/>
</svg>